<?xml version="1.0" encoding="utf-8"?>
<!-- Generator: Adobe Illustrator 27.5.0, SVG Export Plug-In . SVG Version: 6.00 Build 0)  -->
<svg version="1.1" xmlns="http://www.w3.org/2000/svg" xmlns:xlink="http://www.w3.org/1999/xlink" x="0px" y="0px"
	 viewBox="0 0 750 500" style="enable-background:new 0 0 750 500;" xml:space="preserve">
<g id="BACKGROUND">
	<g>
		<rect style="fill:#8CEAEB;" width="750" height="500"/>
	</g>
</g>
<g id="OBJECTS">
	<g>
		<defs>
			<rect id="SVGID_1_" width="750" height="500"/>
		</defs>
		<clipPath id="SVGID_00000050650043821142393570000014175625199369800886_">
			<use xlink:href="#SVGID_1_"  style="overflow:visible;"/>
		</clipPath>
		<g style="clip-path:url(#SVGID_00000050650043821142393570000014175625199369800886_);">
			<circle style="fill:#44C8C7;" cx="755.416" cy="191.533" r="52.502"/>
			<circle style="fill:#44C8C7;" cx="0" cy="-5.557" r="52.502"/>
			<g>
				<g>
					
						<line style="fill:none;stroke:#FFFFFF;stroke-width:0.5;stroke-miterlimit:10;" x1="820.843" y1="19.451" x2="-69.198" y2="19.451"/>
					
						<line style="fill:none;stroke:#FFFFFF;stroke-width:0.5;stroke-miterlimit:10;" x1="820.843" y1="50.17" x2="-69.198" y2="50.17"/>
					
						<line style="fill:none;stroke:#FFFFFF;stroke-width:0.5;stroke-miterlimit:10;" x1="820.843" y1="80.889" x2="-69.198" y2="80.889"/>
					
						<line style="fill:none;stroke:#FFFFFF;stroke-width:0.5;stroke-miterlimit:10;" x1="820.843" y1="111.609" x2="-69.198" y2="111.608"/>
					
						<line style="fill:none;stroke:#FFFFFF;stroke-width:0.5;stroke-miterlimit:10;" x1="820.843" y1="142.328" x2="-69.198" y2="142.328"/>
					
						<line style="fill:none;stroke:#FFFFFF;stroke-width:0.5;stroke-miterlimit:10;" x1="820.843" y1="173.047" x2="-69.198" y2="173.047"/>
					
						<line style="fill:none;stroke:#FFFFFF;stroke-width:0.5;stroke-miterlimit:10;" x1="820.843" y1="203.766" x2="-69.198" y2="203.766"/>
					
						<line style="fill:none;stroke:#FFFFFF;stroke-width:0.5;stroke-miterlimit:10;" x1="820.843" y1="234.486" x2="-69.198" y2="234.485"/>
					
						<line style="fill:none;stroke:#FFFFFF;stroke-width:0.5;stroke-miterlimit:10;" x1="820.843" y1="265.205" x2="-69.198" y2="265.204"/>
					
						<line style="fill:none;stroke:#FFFFFF;stroke-width:0.5;stroke-miterlimit:10;" x1="820.843" y1="295.924" x2="-69.198" y2="295.924"/>
					
						<line style="fill:none;stroke:#FFFFFF;stroke-width:0.5;stroke-miterlimit:10;" x1="820.843" y1="326.643" x2="-69.198" y2="326.643"/>
					
						<line style="fill:none;stroke:#FFFFFF;stroke-width:0.5;stroke-miterlimit:10;" x1="820.843" y1="357.362" x2="-69.198" y2="357.362"/>
					
						<line style="fill:none;stroke:#FFFFFF;stroke-width:0.5;stroke-miterlimit:10;" x1="820.843" y1="388.082" x2="-69.198" y2="388.081"/>
					
						<line style="fill:none;stroke:#FFFFFF;stroke-width:0.5;stroke-miterlimit:10;" x1="820.843" y1="418.801" x2="-69.198" y2="418.801"/>
					
						<line style="fill:none;stroke:#FFFFFF;stroke-width:0.5;stroke-miterlimit:10;" x1="820.843" y1="449.52" x2="-69.198" y2="449.52"/>
					
						<line style="fill:none;stroke:#FFFFFF;stroke-width:0.5;stroke-miterlimit:10;" x1="820.843" y1="480.239" x2="-69.198" y2="480.239"/>
				</g>
				<g>
					
						<line style="fill:none;stroke:#FFFFFF;stroke-width:0.5;stroke-miterlimit:10;" x1="-12.565" y1="-37.183" x2="-12.565" y2="536.872"/>
					
						<line style="fill:none;stroke:#FFFFFF;stroke-width:0.5;stroke-miterlimit:10;" x1="18.154" y1="-37.183" x2="18.154" y2="536.872"/>
					
						<line style="fill:none;stroke:#FFFFFF;stroke-width:0.5;stroke-miterlimit:10;" x1="48.874" y1="-37.183" x2="48.874" y2="536.872"/>
					
						<line style="fill:none;stroke:#FFFFFF;stroke-width:0.5;stroke-miterlimit:10;" x1="79.593" y1="-37.183" x2="79.593" y2="536.872"/>
					
						<line style="fill:none;stroke:#FFFFFF;stroke-width:0.5;stroke-miterlimit:10;" x1="110.312" y1="-37.183" x2="110.312" y2="536.872"/>
					
						<line style="fill:none;stroke:#FFFFFF;stroke-width:0.5;stroke-miterlimit:10;" x1="141.031" y1="-37.183" x2="141.031" y2="536.872"/>
					
						<line style="fill:none;stroke:#FFFFFF;stroke-width:0.5;stroke-miterlimit:10;" x1="171.751" y1="-37.183" x2="171.751" y2="536.872"/>
					
						<line style="fill:none;stroke:#FFFFFF;stroke-width:0.5;stroke-miterlimit:10;" x1="202.47" y1="-37.183" x2="202.47" y2="536.872"/>
					
						<line style="fill:none;stroke:#FFFFFF;stroke-width:0.5;stroke-miterlimit:10;" x1="233.189" y1="-37.183" x2="233.189" y2="536.872"/>
					
						<line style="fill:none;stroke:#FFFFFF;stroke-width:0.5;stroke-miterlimit:10;" x1="263.908" y1="-37.183" x2="263.908" y2="536.872"/>
					
						<line style="fill:none;stroke:#FFFFFF;stroke-width:0.5;stroke-miterlimit:10;" x1="294.627" y1="-37.183" x2="294.627" y2="536.872"/>
					
						<line style="fill:none;stroke:#FFFFFF;stroke-width:0.5;stroke-miterlimit:10;" x1="325.346" y1="-37.183" x2="325.346" y2="536.872"/>
					
						<line style="fill:none;stroke:#FFFFFF;stroke-width:0.5;stroke-miterlimit:10;" x1="356.066" y1="-37.183" x2="356.066" y2="536.872"/>
					
						<line style="fill:none;stroke:#FFFFFF;stroke-width:0.5;stroke-miterlimit:10;" x1="386.785" y1="-37.183" x2="386.785" y2="536.872"/>
					
						<line style="fill:none;stroke:#FFFFFF;stroke-width:0.5;stroke-miterlimit:10;" x1="417.504" y1="-37.183" x2="417.504" y2="536.872"/>
					
						<line style="fill:none;stroke:#FFFFFF;stroke-width:0.5;stroke-miterlimit:10;" x1="448.223" y1="-37.183" x2="448.223" y2="536.872"/>
					
						<line style="fill:none;stroke:#FFFFFF;stroke-width:0.5;stroke-miterlimit:10;" x1="478.943" y1="-37.183" x2="478.943" y2="536.872"/>
					
						<line style="fill:none;stroke:#FFFFFF;stroke-width:0.5;stroke-miterlimit:10;" x1="509.662" y1="-37.183" x2="509.662" y2="536.872"/>
					
						<line style="fill:none;stroke:#FFFFFF;stroke-width:0.5;stroke-miterlimit:10;" x1="540.381" y1="-37.183" x2="540.381" y2="536.872"/>
					
						<line style="fill:none;stroke:#FFFFFF;stroke-width:0.5;stroke-miterlimit:10;" x1="571.1" y1="-37.183" x2="571.1" y2="536.872"/>
					
						<line style="fill:none;stroke:#FFFFFF;stroke-width:0.5;stroke-miterlimit:10;" x1="601.819" y1="-37.183" x2="601.819" y2="536.872"/>
					
						<line style="fill:none;stroke:#FFFFFF;stroke-width:0.5;stroke-miterlimit:10;" x1="632.539" y1="-37.183" x2="632.539" y2="536.872"/>
					
						<line style="fill:none;stroke:#FFFFFF;stroke-width:0.5;stroke-miterlimit:10;" x1="663.258" y1="-37.183" x2="663.258" y2="536.872"/>
					
						<line style="fill:none;stroke:#FFFFFF;stroke-width:0.5;stroke-miterlimit:10;" x1="693.977" y1="-37.183" x2="693.977" y2="536.872"/>
					
						<line style="fill:none;stroke:#FFFFFF;stroke-width:0.5;stroke-miterlimit:10;" x1="724.696" y1="-37.183" x2="724.696" y2="536.872"/>
					
						<line style="fill:none;stroke:#FFFFFF;stroke-width:0.5;stroke-miterlimit:10;" x1="755.416" y1="-37.183" x2="755.416" y2="536.872"/>
				</g>
			</g>
			<g>
				<g>
					<rect x="87.535" y="122.544" style="fill:#F21A76;" width="4.893" height="114.592"/>
					<rect x="104.44" y="122.544" style="fill:#F21A76;" width="4.893" height="114.592"/>
					<rect x="121.346" y="122.544" style="fill:#F21A76;" width="4.893" height="114.592"/>
					<rect x="138.251" y="122.544" style="fill:#F21A76;" width="4.893" height="114.592"/>
				</g>
				<circle style="fill:#FFFFFF;stroke:#000000;stroke-width:2;stroke-miterlimit:10;" cx="115.404" cy="115.405" r="44.526"/>
				
					<ellipse transform="matrix(0.7071 -0.7071 0.7071 0.7071 -47.8024 115.4044)" style="fill:#1A1A1A;" cx="115.404" cy="115.405" rx="22.138" ry="22.138"/>
				<circle style="fill:#F21A76;" cx="115.404" cy="115.405" r="10.569"/>
				<path style="fill:#FFFFFF;" d="M107.042,100.155c0,3.804-3.084,6.888-6.888,6.888c-3.804,0-6.888-3.084-6.888-6.888
					c0-3.804,3.084-6.888,6.888-6.888C103.958,93.267,107.042,96.351,107.042,100.155z"/>
				<circle style="fill:#FFFFFF;" cx="108.313" cy="108.781" r="2.739"/>
			</g>
			<g>
				<defs>
					<rect id="SVGID_00000077314244820709016340000006980451687946656410_" y="295.924" width="750" height="204.076"/>
				</defs>
				<clipPath id="SVGID_00000147204661903746109730000015001995677652110990_">
					<use xlink:href="#SVGID_00000077314244820709016340000006980451687946656410_"  style="overflow:visible;"/>
				</clipPath>
				<g style="clip-path:url(#SVGID_00000147204661903746109730000015001995677652110990_);">
					
						<path style="fill:#FFFFFF;stroke:#000000;stroke-width:2;stroke-linecap:round;stroke-linejoin:round;stroke-miterlimit:10;" d="
						M769.208,498.295l-56.842-28.421h-31.263l-39.789-25.299l-26.575-6.912l-33.109-36.421c0,0-33.158-24.211-36.947-26.105
						c-3.789-1.895-27.474,2.244-27.474,2.244l-22.527-9.83l-14.42-6.572l-50.21,16.402l-27.474,23.861l-31.897,25.021
						l-33.584,18.312l-16.892,12.983l-20.027,6.175l-41.411-10.917c0,0-38.083-22.731-45.662-22.731
						c-7.579,0-107.338-28.315-107.195-28.842s-11.08-33.933-17.784-32.861c-6.704,1.072-13.674-15.639-13.674-6.935
						c0,8.704-16.715-25.926-16.715-25.926l-14.005-24.8c0,0-30.719,10.884-30.719,10.651s-18.154,3.556-18.154,3.556
						s-20,13.263-20,14.211c0,0.947,0,307.894,0,307.894l795.298-2.842C770.807,650.821,769.208,498.295,769.208,498.295z"/>
					
						<path style="fill:#CBCBCB;stroke:#000000;stroke-width:2;stroke-linecap:round;stroke-linejoin:round;stroke-miterlimit:10;" d="
						M402.577,401.243l-31.897,25.021l-33.584,18.312l-16.892,12.983l-16.505,5.089l-11.016,11.016l-14.58,5.897
						c0,0-4.367,6.419-9.104,10.208c-4.737,3.789-0.78,4.09-0.78,4.09s-9.641,9.173-15.697,12.963
						c-6.056,3.789-24.26,12.316-24.26,12.316l-7.579,11.368c0,0-3.789,14.211-5.684,15.256
						c-1.895,1.046-44.526,25.481-44.526,25.481l-20.842,10.421l-21.789,12.316l-7.01,16.105l-63.095,35.653h279.36l13.827-17.653
						l7.192-25.69l12.565-28.31l10.962-28.323l7.671-17.151l10.421-13.568c0,0,29.368-31.905,33.158-33.765
						c3.79-1.86,4.737-14.245,4.737-14.245l5.451-44.147l7.812-14.59l17.053-19.933v-10.981l12.316-16.402l-50.21,16.402
						L402.577,401.243z"/>
					
						<path style="fill:#CBCBCB;stroke:#000000;stroke-width:2;stroke-linecap:round;stroke-linejoin:round;stroke-miterlimit:10;" d="
						M-5.142,324.927c0,0-20,13.263-20,14.21c0,0.488,0,82.065,0,161.117l7.435-6.396l16.052-26.867l8.037-25.896v-21.14
						c0,0,22.325-48.513,25.003-51.574c2.679-3.061,4.465-6.935,4.465-6.935V335.52l7.881-24.8c0,0-30.719,10.884-30.719,10.651
						S-5.142,324.927-5.142,324.927z"/>
				</g>
			</g>
			<g>
				<path style="fill:#44C8C7;" d="M720.884,289.149c0-1.521-1.233-2.755-2.755-2.755c-1.521,0-2.755,1.233-2.755,2.755
					c0,1.521,1.233,2.755,2.755,2.755C719.651,291.904,720.884,290.67,720.884,289.149z"/>
				<path style="fill:#44C8C7;" d="M720.884,308.709c0-1.521-1.233-2.755-2.755-2.755c-1.521,0-2.755,1.233-2.755,2.755
					c0,1.521,1.233,2.755,2.755,2.755C719.651,311.464,720.884,310.23,720.884,308.709z"/>
				<path style="fill:#44C8C7;" d="M720.884,328.269c0-1.521-1.233-2.755-2.755-2.755c-1.521,0-2.755,1.233-2.755,2.755
					c0,1.521,1.233,2.755,2.755,2.755C719.651,331.023,720.884,329.79,720.884,328.269z"/>
				<path style="fill:#44C8C7;" d="M720.884,347.829c0-1.521-1.233-2.755-2.755-2.755c-1.521,0-2.755,1.233-2.755,2.755
					c0,1.521,1.233,2.755,2.755,2.755C719.651,350.583,720.884,349.35,720.884,347.829z"/>
				<path style="fill:#44C8C7;" d="M720.884,367.389c0-1.521-1.233-2.755-2.755-2.755c-1.521,0-2.755,1.233-2.755,2.755
					c0,1.521,1.233,2.755,2.755,2.755C719.651,370.143,720.884,368.91,720.884,367.389z"/>
				<path style="fill:#44C8C7;" d="M720.884,386.949c0-1.521-1.233-2.755-2.755-2.755c-1.521,0-2.755,1.233-2.755,2.755
					c0,1.521,1.233,2.755,2.755,2.755C719.651,389.703,720.884,388.47,720.884,386.949z"/>
				<path style="fill:#44C8C7;" d="M720.884,406.509c0-1.521-1.233-2.755-2.755-2.755c-1.521,0-2.755,1.233-2.755,2.755
					c0,1.521,1.233,2.755,2.755,2.755C719.651,409.263,720.884,408.03,720.884,406.509z"/>
				<path style="fill:#44C8C7;" d="M715.375,426.068c0,1.522,1.233,2.755,2.755,2.755c1.521,0,2.755-1.233,2.755-2.755
					c0-1.521-1.233-2.755-2.755-2.755C716.608,423.314,715.375,424.547,715.375,426.068z"/>
				<circle style="fill:#44C8C7;" cx="702.912" cy="289.149" r="2.755"/>
				<path style="fill:#44C8C7;" d="M705.667,308.709c0-1.521-1.233-2.755-2.755-2.755c-1.521,0-2.755,1.233-2.755,2.755
					c0,1.521,1.233,2.755,2.755,2.755C704.433,311.464,705.667,310.23,705.667,308.709z"/>
				<path style="fill:#44C8C7;" d="M705.667,328.269c0-1.521-1.233-2.755-2.755-2.755c-1.521,0-2.755,1.233-2.755,2.755
					c0,1.521,1.233,2.755,2.755,2.755C704.433,331.023,705.667,329.79,705.667,328.269z"/>
				<path style="fill:#44C8C7;" d="M705.667,347.829c0-1.521-1.233-2.755-2.755-2.755c-1.521,0-2.755,1.233-2.755,2.755
					c0,1.521,1.233,2.755,2.755,2.755C704.433,350.583,705.667,349.35,705.667,347.829z"/>
				<circle style="fill:#44C8C7;" cx="702.912" cy="367.389" r="2.755"/>
				<path style="fill:#44C8C7;" d="M705.667,386.949c0-1.521-1.233-2.755-2.755-2.755c-1.521,0-2.755,1.233-2.755,2.755
					c0,1.521,1.233,2.755,2.755,2.755C704.433,389.703,705.667,388.47,705.667,386.949z"/>
				<path style="fill:#44C8C7;" d="M705.667,406.509c0-1.521-1.233-2.755-2.755-2.755c-1.521,0-2.755,1.233-2.755,2.755
					c0,1.521,1.233,2.755,2.755,2.755C704.433,409.263,705.667,408.03,705.667,406.509z"/>
				<path style="fill:#44C8C7;" d="M705.667,426.068c0-1.521-1.233-2.755-2.755-2.755c-1.521,0-2.755,1.233-2.755,2.755
					c0,1.522,1.233,2.755,2.755,2.755C704.433,428.823,705.667,427.59,705.667,426.068z"/>
				<path style="fill:#44C8C7;" d="M690.449,289.149c0-1.521-1.233-2.755-2.755-2.755c-1.521,0-2.755,1.233-2.755,2.755
					c0,1.521,1.233,2.755,2.755,2.755C689.215,291.904,690.449,290.67,690.449,289.149z"/>
				<path style="fill:#44C8C7;" d="M690.449,308.709c0-1.521-1.233-2.755-2.755-2.755c-1.521,0-2.755,1.233-2.755,2.755
					c0,1.521,1.233,2.755,2.755,2.755C689.215,311.464,690.449,310.23,690.449,308.709z"/>
				<path style="fill:#44C8C7;" d="M690.449,328.269c0-1.521-1.233-2.755-2.755-2.755c-1.521,0-2.755,1.233-2.755,2.755
					c0,1.521,1.233,2.755,2.755,2.755C689.215,331.023,690.449,329.79,690.449,328.269z"/>
				<path style="fill:#44C8C7;" d="M690.449,347.829c0-1.521-1.233-2.755-2.755-2.755c-1.521,0-2.755,1.233-2.755,2.755
					c0,1.521,1.233,2.755,2.755,2.755C689.215,350.583,690.449,349.35,690.449,347.829z"/>
				<path style="fill:#44C8C7;" d="M690.449,367.389c0-1.521-1.233-2.755-2.755-2.755c-1.521,0-2.755,1.233-2.755,2.755
					c0,1.521,1.233,2.755,2.755,2.755C689.215,370.143,690.449,368.91,690.449,367.389z"/>
				<path style="fill:#44C8C7;" d="M690.449,386.949c0-1.521-1.233-2.755-2.755-2.755c-1.521,0-2.755,1.233-2.755,2.755
					c0,1.521,1.233,2.755,2.755,2.755C689.215,389.703,690.449,388.47,690.449,386.949z"/>
				<path style="fill:#44C8C7;" d="M690.449,406.509c0-1.521-1.233-2.755-2.755-2.755c-1.521,0-2.755,1.233-2.755,2.755
					c0,1.521,1.233,2.755,2.755,2.755C689.215,409.263,690.449,408.03,690.449,406.509z"/>
				<path style="fill:#44C8C7;" d="M690.449,426.068c0-1.521-1.233-2.755-2.755-2.755c-1.521,0-2.755,1.233-2.755,2.755
					c0,1.522,1.233,2.755,2.755,2.755C689.215,428.823,690.449,427.59,690.449,426.068z"/>
				<circle style="fill:#44C8C7;" cx="672.476" cy="289.149" r="2.755"/>
				<path style="fill:#44C8C7;" d="M675.231,308.709c0-1.521-1.233-2.755-2.755-2.755s-2.755,1.233-2.755,2.755
					c0,1.521,1.233,2.755,2.755,2.755S675.231,310.23,675.231,308.709z"/>
				<path style="fill:#44C8C7;" d="M675.231,328.269c0-1.521-1.233-2.755-2.755-2.755s-2.755,1.233-2.755,2.755
					c0,1.521,1.233,2.755,2.755,2.755S675.231,329.79,675.231,328.269z"/>
				<path style="fill:#44C8C7;" d="M675.231,347.829c0-1.521-1.233-2.755-2.755-2.755s-2.755,1.233-2.755,2.755
					c0,1.521,1.233,2.755,2.755,2.755S675.231,349.35,675.231,347.829z"/>
				<circle style="fill:#44C8C7;" cx="672.476" cy="367.389" r="2.755"/>
				<path style="fill:#44C8C7;" d="M675.231,386.949c0-1.521-1.233-2.755-2.755-2.755s-2.755,1.233-2.755,2.755
					c0,1.521,1.233,2.755,2.755,2.755S675.231,388.47,675.231,386.949z"/>
				<path style="fill:#44C8C7;" d="M675.231,406.509c0-1.521-1.233-2.755-2.755-2.755s-2.755,1.233-2.755,2.755
					c0,1.521,1.233,2.755,2.755,2.755S675.231,408.03,675.231,406.509z"/>
				<path style="fill:#44C8C7;" d="M675.231,426.068c0-1.521-1.233-2.755-2.755-2.755s-2.755,1.233-2.755,2.755
					c0,1.522,1.233,2.755,2.755,2.755S675.231,427.59,675.231,426.068z"/>
				<path style="fill:#44C8C7;" d="M660.013,289.149c0-1.521-1.233-2.755-2.755-2.755c-1.521,0-2.755,1.233-2.755,2.755
					c0,1.521,1.233,2.755,2.755,2.755C658.78,291.904,660.013,290.67,660.013,289.149z"/>
				<path style="fill:#44C8C7;" d="M660.013,308.709c0-1.521-1.233-2.755-2.755-2.755c-1.521,0-2.755,1.233-2.755,2.755
					c0,1.521,1.233,2.755,2.755,2.755C658.78,311.464,660.013,310.23,660.013,308.709z"/>
				<path style="fill:#44C8C7;" d="M660.013,328.269c0-1.521-1.233-2.755-2.755-2.755c-1.521,0-2.755,1.233-2.755,2.755
					c0,1.521,1.233,2.755,2.755,2.755C658.78,331.023,660.013,329.79,660.013,328.269z"/>
				<path style="fill:#44C8C7;" d="M660.013,347.829c0-1.521-1.233-2.755-2.755-2.755c-1.521,0-2.755,1.233-2.755,2.755
					c0,1.521,1.233,2.755,2.755,2.755C658.78,350.583,660.013,349.35,660.013,347.829z"/>
				<path style="fill:#44C8C7;" d="M660.013,367.389c0-1.521-1.233-2.755-2.755-2.755c-1.521,0-2.755,1.233-2.755,2.755
					c0,1.521,1.233,2.755,2.755,2.755C658.78,370.143,660.013,368.91,660.013,367.389z"/>
				<path style="fill:#44C8C7;" d="M660.013,386.949c0-1.521-1.233-2.755-2.755-2.755c-1.521,0-2.755,1.233-2.755,2.755
					c0,1.521,1.233,2.755,2.755,2.755C658.78,389.703,660.013,388.47,660.013,386.949z"/>
				<path style="fill:#44C8C7;" d="M660.013,406.509c0-1.521-1.233-2.755-2.755-2.755c-1.521,0-2.755,1.233-2.755,2.755
					c0,1.521,1.233,2.755,2.755,2.755C658.78,409.263,660.013,408.03,660.013,406.509z"/>
				<path style="fill:#44C8C7;" d="M660.013,426.068c0-1.521-1.233-2.755-2.755-2.755c-1.521,0-2.755,1.233-2.755,2.755
					c0,1.522,1.233,2.755,2.755,2.755C658.78,428.823,660.013,427.59,660.013,426.068z"/>
			</g>
			<path style="fill:#FDAE51;stroke:#000000;stroke-width:2;stroke-miterlimit:10;" d="M633.496,398.654
				c-30.349,0-54.951-24.602-54.951-54.951c0-10.787,3.12-20.839,8.489-29.327c-18.016,9.367-30.329,28.189-30.329,49.898
				c0,31.049,25.17,56.219,56.219,56.219c21.709,0,40.531-12.313,49.898-30.329C654.335,395.534,644.282,398.654,633.496,398.654z"
				/>
			<g>
				<g>
					<path style="fill:#FF6EC9;stroke:#000000;stroke-width:2;stroke-miterlimit:10;" d="M654.504,123.821H339.74
						c-7.949,0-14.393-6.444-14.393-14.393V77.563h314.301c8.205,0,14.857,6.652,14.857,14.857V123.821z"/>
					<path style="fill:#FFFFFF;stroke:#000000;stroke-width:2;stroke-miterlimit:10;" d="M654.504,92.862H325.346V76.489h314.558
						c8.063,0,14.6,6.536,14.6,14.599V92.862z"/>
				</g>
				<g>
					<circle cx="339.874" cy="84.254" r="2.365"/>
					<circle cx="351.565" cy="84.254" r="2.365"/>
					<circle cx="363.257" cy="84.254" r="2.365"/>
					<circle cx="374.949" cy="84.254" r="2.365"/>
				</g>
				<rect x="349.201" y="103.194" style="fill:#00FFFD;" width="165.571" height="8.414"/>
				
					<rect x="514.772" y="103.194" transform="matrix(-1 -1.224647e-16 1.224647e-16 -1 1156.4432 214.8029)" style="fill:#C82C9A;" width="126.899" height="8.414"/>
				
					<text transform="matrix(1 0 0 1 543.207 114.0933)" style="fill:#FFFFFF; font-family:'Graduate-Regular'; font-size:17.8024px;">LOADING</text>
			</g>
			<g>
				<polygon style="fill:#FFFFFF;" points="603.854,317.878 606.837,330.466 619.425,333.449 606.837,336.433 603.854,349.021 
					600.87,336.433 588.283,333.449 600.87,330.466 				"/>
				<polygon style="fill:#FFFFFF;" points="48.874,34.599 51.857,47.187 64.445,50.17 51.857,53.154 48.874,65.741 45.89,53.154 
					33.302,50.17 45.89,47.187 				"/>
				<polygon style="fill:#FFFFFF;" points="622.732,346.615 624.839,355.502 633.726,357.609 624.839,359.715 622.732,368.602 
					620.626,359.715 611.739,357.609 620.626,355.502 				"/>
				<polygon style="fill:#FFFFFF;" points="633.726,324.028 635.354,330.896 642.222,332.524 635.354,334.152 633.726,341.02 
					632.098,334.152 625.23,332.524 632.098,330.896 				"/>
				<polygon style="fill:#FFFFFF;" points="295.476,148.145 296.446,152.237 300.538,153.207 296.446,154.177 295.476,158.269 
					294.506,154.177 290.414,153.207 294.506,152.237 				"/>
				<polygon style="fill:#FFFFFF;" points="38.364,234.103 39.334,238.195 43.426,239.165 39.334,240.135 38.364,244.227 
					37.394,240.135 33.302,239.165 37.394,238.195 				"/>
				<polygon style="fill:#FFFFFF;" points="677.696,217.21 678.666,221.302 682.758,222.271 678.666,223.241 677.696,227.333 
					676.727,223.241 672.635,222.271 676.727,221.302 				"/>
				<polygon style="fill:#FFFFFF;" points="713.121,92.469 714.09,96.562 718.182,97.531 714.09,98.501 713.121,102.593 
					712.151,98.501 708.059,97.531 712.151,96.562 				"/>
				<polygon style="fill:#FFFFFF;" points="281.54,87.408 282.509,91.5 286.602,92.469 282.509,93.439 281.54,97.531 280.57,93.439 
					276.478,92.469 280.57,91.5 				"/>
				<polygon style="fill:#FFFFFF;" points="89.504,29.537 90.474,33.629 94.566,34.599 90.474,35.569 89.504,39.661 88.534,35.569 
					84.442,34.599 88.534,33.629 				"/>
				<polygon style="fill:#FFFFFF;" points="708.059,244.782 709.029,248.874 713.121,249.844 709.029,250.814 708.059,254.906 
					707.089,250.814 702.997,249.844 707.089,248.874 				"/>
				<polygon style="fill:#FFFFFF;" points="277.104,430.842 278.074,434.934 282.166,435.904 278.074,436.874 277.104,440.966 
					276.134,436.874 272.042,435.904 276.134,434.934 				"/>
				<polygon style="fill:#FFFFFF;" points="38.364,207.733 39.334,211.825 43.426,212.795 39.334,213.765 38.364,217.857 
					37.394,213.765 33.302,212.795 37.394,211.825 				"/>
				<polygon style="fill:#FFFFFF;" points="282.166,181.41 283.136,185.502 287.228,186.471 283.136,187.441 282.166,191.533 
					281.196,187.441 277.104,186.471 281.196,185.502 				"/>
				<polygon style="fill:#FFFFFF;" points="646.266,33.545 647.236,37.637 651.328,38.607 647.236,39.577 646.266,43.669 
					645.296,39.577 641.204,38.607 645.296,37.637 				"/>
				<polygon style="fill:#FFFFFF;" points="721.616,418.801 723.244,425.669 730.112,427.297 723.244,428.924 721.616,435.793 
					719.989,428.924 713.121,427.297 719.989,425.669 				"/>
				<polygon style="fill:#FFFFFF;" points="224.831,398.221 226.459,405.089 233.327,406.717 226.459,408.345 224.831,415.213 
					223.203,408.345 216.335,406.717 223.203,405.089 				"/>
				<polygon style="fill:#FFFFFF;" points="523.648,344.578 524.765,349.291 529.477,350.408 524.765,351.525 523.648,356.237 
					522.531,351.525 517.819,350.408 522.531,349.291 				"/>
				<polygon style="fill:#FFFFFF;" points="654.762,17.607 656.39,24.475 663.258,26.103 656.39,27.731 654.762,34.599 
					653.134,27.731 646.266,26.103 653.134,24.475 				"/>
				<polygon style="fill:#FFFFFF;" points="290.035,61.504 291.663,68.371 298.531,69.999 291.663,71.627 290.035,78.495 
					288.408,71.627 281.54,69.999 288.408,68.371 				"/>
				<polygon style="fill:#FFFFFF;" points="707.354,117.478 708.982,124.346 715.85,125.974 708.982,127.602 707.354,134.469 
					705.726,127.602 698.858,125.974 705.726,124.346 				"/>
			</g>
			<g>
				<g>
					<path style="fill:#B75FF5;stroke:#000000;stroke-width:2;stroke-miterlimit:10;" d="M290.035,379.053H85.271
						c-7.949,0-14.393-6.444-14.393-14.393V212.795h204.301c8.205,0,14.857,6.652,14.857,14.857V379.053z"/>
					<path style="fill:#FFFFFF;stroke:#000000;stroke-width:2;stroke-miterlimit:10;" d="M290.035,228.093H70.878V211.72h204.558
						c8.063,0,14.599,6.536,14.599,14.6V228.093z"/>
				</g>
				<g>
					<circle cx="89.504" cy="219.907" r="2.365"/>
					<circle cx="101.196" cy="219.907" r="2.365"/>
					<circle cx="112.888" cy="219.907" r="2.365"/>
					<circle cx="124.58" cy="219.907" r="2.365"/>
				</g>
				<g>
					<rect x="79.593" y="238.136" style="fill:#943AE5;" width="202.573" height="2.058"/>
					<rect x="79.593" y="245.621" style="fill:#943AE5;" width="202.573" height="2.058"/>
					<rect x="79.593" y="253.106" style="fill:#943AE5;" width="202.573" height="2.058"/>
					<rect x="79.593" y="260.591" style="fill:#943AE5;" width="202.573" height="2.058"/>
					<rect x="79.593" y="268.075" style="fill:#943AE5;" width="202.573" height="2.058"/>
					<rect x="79.593" y="275.56" style="fill:#943AE5;" width="202.573" height="2.058"/>
					<rect x="79.593" y="283.045" style="fill:#943AE5;" width="202.573" height="2.058"/>
					<rect x="79.593" y="290.53" style="fill:#943AE5;" width="202.573" height="2.058"/>
					<rect x="79.593" y="298.014" style="fill:#943AE5;" width="202.573" height="2.058"/>
					<rect x="79.593" y="305.499" style="fill:#943AE5;" width="202.573" height="2.058"/>
					<rect x="79.593" y="312.984" style="fill:#943AE5;" width="202.573" height="2.058"/>
					<rect x="79.593" y="320.469" style="fill:#943AE5;" width="202.573" height="2.058"/>
					<rect x="79.593" y="327.953" style="fill:#943AE5;" width="202.573" height="2.058"/>
					<rect x="79.593" y="335.438" style="fill:#943AE5;" width="202.573" height="2.058"/>
					<rect x="79.593" y="342.923" style="fill:#943AE5;" width="202.573" height="2.058"/>
					<rect x="79.593" y="350.408" style="fill:#943AE5;" width="202.573" height="2.058"/>
					<rect x="79.593" y="357.892" style="fill:#943AE5;" width="202.573" height="2.058"/>
					<rect x="79.593" y="365.377" style="fill:#943AE5;" width="202.573" height="2.058"/>
				</g>
				
					<text transform="matrix(1 0 0 1 105.7172 330.7979)" style="fill:#FFFFFF; font-family:'Graduate-Regular'; font-size:9.9204px;">Works</text>
				
					<text transform="matrix(1 0 0 1 171.2326 330.7979)" style="fill:#FFFFFF; font-family:'Graduate-Regular'; font-size:9.9204px;">Tasks</text>
				
					<text transform="matrix(1 0 0 1 236.5404 330.7979)" style="fill:#FFFFFF; font-family:'Graduate-Regular'; font-size:9.9204px;">12312</text>
				<polygon style="fill:#FFFFFF;stroke:#000000;stroke-width:2;stroke-miterlimit:10;" points="141.884,309.886 99.866,309.886 
					99.866,254.164 126.43,254.164 141.884,268.959 				"/>
				<polygon style="fill:#FFFFFF;stroke:#000000;stroke-width:2;stroke-miterlimit:10;" points="204.367,309.886 162.348,309.886 
					162.348,254.164 188.913,254.164 204.367,268.959 				"/>
				<polygon style="fill:#FFFFFF;stroke:#000000;stroke-width:2;stroke-miterlimit:10;" points="266.849,309.886 224.831,309.886 
					224.831,254.164 251.396,254.164 266.849,268.959 				"/>
			</g>
			<g>
				<path style="fill:#44C8C7;" d="M252.364,46.945c0-1.521-1.233-2.755-2.755-2.755c-1.521,0-2.755,1.233-2.755,2.755
					c0,1.521,1.233,2.755,2.755,2.755C251.13,49.7,252.364,48.466,252.364,46.945z"/>
				<path style="fill:#44C8C7;" d="M252.364,66.505c0-1.521-1.233-2.755-2.755-2.755c-1.521,0-2.755,1.233-2.755,2.755
					c0,1.521,1.233,2.755,2.755,2.755C251.13,69.26,252.364,68.026,252.364,66.505z"/>
				<path style="fill:#44C8C7;" d="M252.364,86.065c0-1.521-1.233-2.755-2.755-2.755c-1.521,0-2.755,1.233-2.755,2.755
					c0,1.521,1.233,2.755,2.755,2.755C251.13,88.82,252.364,87.586,252.364,86.065z"/>
				<path style="fill:#44C8C7;" d="M252.364,105.625c0-1.521-1.233-2.755-2.755-2.755c-1.521,0-2.755,1.233-2.755,2.755
					c0,1.521,1.233,2.755,2.755,2.755C251.13,108.38,252.364,107.146,252.364,105.625z"/>
				<path style="fill:#44C8C7;" d="M252.364,125.185c0-1.521-1.233-2.755-2.755-2.755c-1.521,0-2.755,1.233-2.755,2.755
					c0,1.521,1.233,2.755,2.755,2.755C251.13,127.939,252.364,126.706,252.364,125.185z"/>
				<path style="fill:#44C8C7;" d="M252.364,144.745c0-1.521-1.233-2.755-2.755-2.755c-1.521,0-2.755,1.233-2.755,2.755
					c0,1.521,1.233,2.755,2.755,2.755C251.13,147.499,252.364,146.266,252.364,144.745z"/>
				<path style="fill:#44C8C7;" d="M252.364,164.305c0-1.521-1.233-2.755-2.755-2.755c-1.521,0-2.755,1.233-2.755,2.755
					c0,1.521,1.233,2.755,2.755,2.755C251.13,167.059,252.364,165.826,252.364,164.305z"/>
				<path style="fill:#44C8C7;" d="M246.854,183.865c0,1.521,1.233,2.755,2.755,2.755c1.521,0,2.755-1.233,2.755-2.755
					c0-1.521-1.233-2.755-2.755-2.755C248.088,181.11,246.854,182.343,246.854,183.865z"/>
				<path style="fill:#44C8C7;" d="M237.146,46.945c0-1.521-1.233-2.755-2.755-2.755c-1.521,0-2.755,1.233-2.755,2.755
					c0,1.521,1.233,2.755,2.755,2.755C235.913,49.7,237.146,48.466,237.146,46.945z"/>
				<path style="fill:#44C8C7;" d="M237.146,66.505c0-1.521-1.233-2.755-2.755-2.755c-1.521,0-2.755,1.233-2.755,2.755
					c0,1.521,1.233,2.755,2.755,2.755C235.913,69.26,237.146,68.026,237.146,66.505z"/>
				<circle style="fill:#44C8C7;" cx="234.391" cy="86.065" r="2.755"/>
				<path style="fill:#44C8C7;" d="M237.146,105.625c0-1.521-1.233-2.755-2.755-2.755c-1.521,0-2.755,1.233-2.755,2.755
					c0,1.521,1.233,2.755,2.755,2.755C235.913,108.38,237.146,107.146,237.146,105.625z"/>
				<path style="fill:#44C8C7;" d="M237.146,125.185c0-1.521-1.233-2.755-2.755-2.755c-1.521,0-2.755,1.233-2.755,2.755
					c0,1.521,1.233,2.755,2.755,2.755C235.913,127.939,237.146,126.706,237.146,125.185z"/>
				<circle style="fill:#44C8C7;" cx="234.391" cy="144.745" r="2.755"/>
				<path style="fill:#44C8C7;" d="M237.146,164.305c0-1.521-1.233-2.755-2.755-2.755c-1.521,0-2.755,1.233-2.755,2.755
					c0,1.521,1.233,2.755,2.755,2.755C235.913,167.059,237.146,165.826,237.146,164.305z"/>
				<path style="fill:#44C8C7;" d="M237.146,183.865c0-1.521-1.233-2.755-2.755-2.755c-1.521,0-2.755,1.233-2.755,2.755
					c0,1.521,1.233,2.755,2.755,2.755C235.913,186.619,237.146,185.386,237.146,183.865z"/>
				<path style="fill:#44C8C7;" d="M221.928,46.945c0-1.521-1.233-2.755-2.755-2.755c-1.521,0-2.755,1.233-2.755,2.755
					c0,1.521,1.233,2.755,2.755,2.755C220.695,49.7,221.928,48.466,221.928,46.945z"/>
				<path style="fill:#44C8C7;" d="M221.928,66.505c0-1.521-1.233-2.755-2.755-2.755c-1.521,0-2.755,1.233-2.755,2.755
					c0,1.521,1.233,2.755,2.755,2.755C220.695,69.26,221.928,68.026,221.928,66.505z"/>
				<path style="fill:#44C8C7;" d="M221.928,86.065c0-1.521-1.233-2.755-2.755-2.755c-1.521,0-2.755,1.233-2.755,2.755
					c0,1.521,1.233,2.755,2.755,2.755C220.695,88.82,221.928,87.586,221.928,86.065z"/>
				<path style="fill:#44C8C7;" d="M221.928,105.625c0-1.521-1.233-2.755-2.755-2.755c-1.521,0-2.755,1.233-2.755,2.755
					c0,1.521,1.233,2.755,2.755,2.755C220.695,108.38,221.928,107.146,221.928,105.625z"/>
				<path style="fill:#44C8C7;" d="M221.928,125.185c0-1.521-1.233-2.755-2.755-2.755c-1.521,0-2.755,1.233-2.755,2.755
					c0,1.521,1.233,2.755,2.755,2.755C220.695,127.939,221.928,126.706,221.928,125.185z"/>
				<path style="fill:#44C8C7;" d="M221.928,144.745c0-1.521-1.233-2.755-2.755-2.755c-1.521,0-2.755,1.233-2.755,2.755
					c0,1.521,1.233,2.755,2.755,2.755C220.695,147.499,221.928,146.266,221.928,144.745z"/>
				<path style="fill:#44C8C7;" d="M221.928,164.305c0-1.521-1.233-2.755-2.755-2.755c-1.521,0-2.755,1.233-2.755,2.755
					c0,1.521,1.233,2.755,2.755,2.755C220.695,167.059,221.928,165.826,221.928,164.305z"/>
				<path style="fill:#44C8C7;" d="M221.928,183.865c0-1.521-1.233-2.755-2.755-2.755c-1.521,0-2.755,1.233-2.755,2.755
					c0,1.521,1.233,2.755,2.755,2.755C220.695,186.619,221.928,185.386,221.928,183.865z"/>
				<path style="fill:#44C8C7;" d="M206.711,46.945c0-1.521-1.233-2.755-2.755-2.755s-2.755,1.233-2.755,2.755
					c0,1.521,1.233,2.755,2.755,2.755S206.711,48.466,206.711,46.945z"/>
				<path style="fill:#44C8C7;" d="M206.711,66.505c0-1.521-1.233-2.755-2.755-2.755s-2.755,1.233-2.755,2.755
					c0,1.521,1.233,2.755,2.755,2.755S206.711,68.026,206.711,66.505z"/>
				<circle style="fill:#44C8C7;" cx="203.956" cy="86.065" r="2.755"/>
				<path style="fill:#44C8C7;" d="M206.711,105.625c0-1.521-1.233-2.755-2.755-2.755s-2.755,1.233-2.755,2.755
					c0,1.521,1.233,2.755,2.755,2.755S206.711,107.146,206.711,105.625z"/>
				<path style="fill:#44C8C7;" d="M206.711,125.185c0-1.521-1.233-2.755-2.755-2.755s-2.755,1.233-2.755,2.755
					c0,1.521,1.233,2.755,2.755,2.755S206.711,126.706,206.711,125.185z"/>
				<circle style="fill:#44C8C7;" cx="203.956" cy="144.745" r="2.755"/>
				<path style="fill:#44C8C7;" d="M206.711,164.305c0-1.521-1.233-2.755-2.755-2.755s-2.755,1.233-2.755,2.755
					c0,1.521,1.233,2.755,2.755,2.755S206.711,165.826,206.711,164.305z"/>
				<path style="fill:#44C8C7;" d="M206.711,183.865c0-1.521-1.233-2.755-2.755-2.755s-2.755,1.233-2.755,2.755
					c0,1.521,1.233,2.755,2.755,2.755S206.711,185.386,206.711,183.865z"/>
				<path style="fill:#44C8C7;" d="M191.493,46.945c0-1.521-1.233-2.755-2.755-2.755c-1.521,0-2.755,1.233-2.755,2.755
					c0,1.521,1.233,2.755,2.755,2.755C190.259,49.7,191.493,48.466,191.493,46.945z"/>
				<path style="fill:#44C8C7;" d="M191.493,66.505c0-1.521-1.233-2.755-2.755-2.755c-1.521,0-2.755,1.233-2.755,2.755
					c0,1.521,1.233,2.755,2.755,2.755C190.259,69.26,191.493,68.026,191.493,66.505z"/>
				<path style="fill:#44C8C7;" d="M191.493,86.065c0-1.521-1.233-2.755-2.755-2.755c-1.521,0-2.755,1.233-2.755,2.755
					c0,1.521,1.233,2.755,2.755,2.755C190.259,88.82,191.493,87.586,191.493,86.065z"/>
				<path style="fill:#44C8C7;" d="M191.493,105.625c0-1.521-1.233-2.755-2.755-2.755c-1.521,0-2.755,1.233-2.755,2.755
					c0,1.521,1.233,2.755,2.755,2.755C190.259,108.38,191.493,107.146,191.493,105.625z"/>
				<path style="fill:#44C8C7;" d="M191.493,125.185c0-1.521-1.233-2.755-2.755-2.755c-1.521,0-2.755,1.233-2.755,2.755
					c0,1.521,1.233,2.755,2.755,2.755C190.259,127.939,191.493,126.706,191.493,125.185z"/>
				<path style="fill:#44C8C7;" d="M191.493,144.745c0-1.521-1.233-2.755-2.755-2.755c-1.521,0-2.755,1.233-2.755,2.755
					c0,1.521,1.233,2.755,2.755,2.755C190.259,147.499,191.493,146.266,191.493,144.745z"/>
				<path style="fill:#44C8C7;" d="M191.493,164.305c0-1.521-1.233-2.755-2.755-2.755c-1.521,0-2.755,1.233-2.755,2.755
					c0,1.521,1.233,2.755,2.755,2.755C190.259,167.059,191.493,165.826,191.493,164.305z"/>
				<path style="fill:#44C8C7;" d="M191.493,183.865c0-1.521-1.233-2.755-2.755-2.755c-1.521,0-2.755,1.233-2.755,2.755
					c0,1.521,1.233,2.755,2.755,2.755C190.259,186.619,191.493,185.386,191.493,183.865z"/>
			</g>
			<path style="fill:#FFFFFF;stroke:#000000;stroke-width:2;stroke-miterlimit:10;" d="M298.91,133.278
				c-4.528-10.706-15.129-18.218-27.484-18.218c-3.895,0-7.612,0.755-11.024,2.113c-1.406-11.076-10.857-19.642-22.315-19.642
				c-10.603,0-19.487,7.335-21.869,17.206c-0.211-0.006-0.421-0.016-0.633-0.016c-11.081,0-20.284,8.012-22.15,18.557H298.91z"/>
			<path style="fill:#FFFFFF;stroke:#000000;stroke-width:2;stroke-miterlimit:10;" d="M662.656,61.504
				c5.327-12.594,17.798-21.431,32.333-21.431c4.583,0,8.955,0.888,12.968,2.485c1.654-13.03,12.772-23.107,26.251-23.107
				c12.473,0,22.924,8.629,25.727,20.241c0.248-0.007,0.495-0.019,0.745-0.019c13.036,0,23.862,9.425,26.058,21.831H662.656z"/>
			<path style="fill:#FFFFFF;stroke:#000000;stroke-width:2;stroke-miterlimit:10;" d="M-21.456,186.471
				c3.964-9.372,13.244-15.948,24.06-15.948c3.41,0,6.664,0.66,9.65,1.849c1.231-9.696,9.504-17.195,19.535-17.195
				c9.282,0,17.059,6.421,19.144,15.062c0.185-0.005,0.368-0.014,0.554-0.014c9.7,0,17.757,7.014,19.391,16.245H-21.456z"/>
			<path style="fill:#FFFFFF;stroke:#000000;stroke-width:2;stroke-miterlimit:10;" d="M668.149,354.12
				c4.591-10.854,15.338-18.47,27.865-18.47c3.949,0,7.718,0.765,11.176,2.142c1.426-11.229,11.007-19.914,22.624-19.914
				c10.749,0,19.756,7.436,22.172,17.444c0.214-0.006,0.426-0.016,0.642-0.016c11.234,0,20.565,8.123,22.457,18.814H668.149z"/>
			<path style="fill:#FFFFFF;stroke:#000000;stroke-width:2;stroke-miterlimit:10;" d="M297.898,443.446
				c5.815-13.748,19.428-23.395,35.295-23.395c5.002,0,9.775,0.969,14.156,2.713c1.806-14.224,13.942-25.224,28.656-25.224
				c13.615,0,25.024,9.419,28.084,22.095c0.271-0.008,0.54-0.021,0.813-0.021c14.23,0,26.048,10.289,28.445,23.831H297.898z"/>
			<g>
				<g>
					<path style="fill:#FFFFFF;stroke:#000000;stroke-width:2;stroke-miterlimit:10;" d="M461.565,278.151H336.801
						c-7.949,0-14.393-6.444-14.393-14.393V151.894h124.301c8.205,0,14.857,6.652,14.857,14.857V278.151z"/>
					<path style="fill:#F21A76;stroke:#000000;stroke-width:2;stroke-miterlimit:10;" d="M461.565,167.192H322.408v-16.373h124.558
						c8.063,0,14.599,6.536,14.599,14.599V167.192z"/>
				</g>
				<g>
					<circle cx="339.874" cy="159.005" r="2.365"/>
					<circle cx="351.565" cy="159.005" r="2.365"/>
					<circle cx="363.257" cy="159.005" r="2.365"/>
					<circle cx="374.949" cy="159.005" r="2.365"/>
				</g>
				<g>
					
						<rect x="348.084" y="235.093" style="fill:#FFFFFF;stroke:#000000;stroke-width:2;stroke-linecap:round;stroke-linejoin:round;stroke-miterlimit:10;" width="38.701" height="27.898"/>
					<text transform="matrix(1 0 0 1 353.9301 254.4434)" style="font-family:'Graduate-Regular'; font-size:14.9861px;">YES</text>
				</g>
				<g>
					
						<rect x="398.154" y="235.093" style="fill:#FFFFFF;stroke:#000000;stroke-width:2;stroke-linecap:round;stroke-linejoin:round;stroke-miterlimit:10;" width="38.701" height="27.898"/>
					<text transform="matrix(1 0 0 1 405.9997 254.4434)" style="font-family:'Graduate-Regular'; font-size:14.9861px;">NO</text>
				</g>
				<text transform="matrix(1 0 0 1 337.0947 200.6802)"><tspan x="0" y="0" style="font-family:'Graduate-Regular'; font-size:11.3052px;">Are you sure you</tspan><tspan x="10.316" y="13.566" style="font-family:'Graduate-Regular'; font-size:11.3052px;">want to quit?</tspan></text>
			</g>
			<g>
				<g>
					<polygon style="fill:#FFE54D;stroke:#333333;stroke-width:2;stroke-miterlimit:10;" points="87.232,417.521 87.232,408.935 
						73.324,408.935 73.324,417.521 73.324,420.485 73.324,443.533 117.293,443.533 117.293,417.521 					"/>
					
						<line style="fill:#FFE54D;stroke:#333333;stroke-width:2;stroke-miterlimit:10;" x1="84.389" y1="417.521" x2="97.11" y2="417.521"/>
				</g>
				<text transform="matrix(1 0 0 1 85.086 460.7803)" style="font-family:'Graduate-Regular'; font-size:9.9204px;">Image</text>
			</g>
			<g>
				<g>
					<polygon style="fill:#FFE54D;stroke:#333333;stroke-width:2;stroke-miterlimit:10;" points="150.396,417.521 150.396,408.935 
						136.489,408.935 136.489,417.521 136.489,420.485 136.489,443.533 180.457,443.533 180.457,417.521 					"/>
					
						<line style="fill:#FFE54D;stroke:#333333;stroke-width:2;stroke-miterlimit:10;" x1="141.649" y1="417.521" x2="154.37" y2="417.521"/>
				</g>
				<text transform="matrix(1 0 0 1 145.5821 460.7803)" style="font-family:'Graduate-Regular'; font-size:9.9204px;">Poster</text>
			</g>
			<g>
				<g>
					<path style="fill:#F21A76;" d="M586.351,182.063h-90.316c-4.535,0-8.211-3.676-8.211-8.21l0,0c0-4.535,3.676-8.211,8.211-8.211
						h90.316V182.063z"/>
					<g>
						<polygon style="fill:#FFFFFF;" points="511.818,165.642 509.932,165.642 504.485,182.063 506.371,182.063 						"/>
						<polygon style="fill:#FFFFFF;" points="520.106,165.642 518.221,165.642 512.773,182.063 514.659,182.063 						"/>
						<polygon style="fill:#FFFFFF;" points="507.674,165.642 505.788,165.642 500.341,182.063 502.227,182.063 						"/>
						<path style="fill:#FFFFFF;" d="M493.081,166.471l-3.93,11.848c0.405,0.524,0.877,1.005,1.409,1.437l4.613-13.905
							C494.44,165.99,493.741,166.201,493.081,166.471z"/>
						<path style="fill:#FFFFFF;" d="M499.385,165.642H497.5l-5.075,15.299c0.527,0.259,1.086,0.476,1.67,0.649L499.385,165.642z"/>
						<path style="fill:#FFFFFF;" d="M501.644,165.642l-5.428,16.364c0.366,0.035,0.737,0.057,1.115,0.057h0.752l5.447-16.421
							H501.644z"/>
						<polygon style="fill:#FFFFFF;" points="524.25,165.642 522.365,165.642 516.918,182.063 518.803,182.063 						"/>
						<polygon style="fill:#FFFFFF;" points="515.962,165.642 514.077,165.642 508.629,182.063 510.515,182.063 						"/>
						<polygon style="fill:#FFFFFF;" points="549.115,165.642 547.23,165.642 541.782,182.063 543.668,182.063 						"/>
						<polygon style="fill:#FFFFFF;" points="544.971,165.642 543.086,165.642 537.638,182.063 539.523,182.063 						"/>
						<polygon style="fill:#FFFFFF;" points="528.395,165.642 526.509,165.642 521.062,182.063 522.947,182.063 						"/>
						<polygon style="fill:#FFFFFF;" points="557.403,165.642 555.518,165.642 550.07,182.063 551.956,182.063 						"/>
						<polygon style="fill:#FFFFFF;" points="553.259,165.642 551.374,165.642 545.926,182.063 547.812,182.063 						"/>
						<polygon style="fill:#FFFFFF;" points="532.539,165.642 530.653,165.642 525.206,182.063 527.091,182.063 						"/>
						<polygon style="fill:#FFFFFF;" points="540.827,165.642 538.942,165.642 533.494,182.063 535.379,182.063 						"/>
						<polygon style="fill:#FFFFFF;" points="536.683,165.642 534.797,165.642 529.35,182.063 531.235,182.063 						"/>
					</g>
					<path d="M587.351,183.064h-91.315c-5.079,0-9.211-4.132-9.211-9.211s4.132-9.21,9.211-9.21h91.315V183.064z M496.035,166.643
						c-3.977,0-7.211,3.234-7.211,7.21c0,3.976,3.234,7.211,7.211,7.211h89.315v-14.421H496.035z"/>
				</g>
				<g>
					
						<rect x="580.872" y="151.894" style="fill:#FFFFFF;stroke:#000000;stroke-width:2;stroke-linecap:round;stroke-linejoin:round;stroke-miterlimit:10;" width="70.95" height="43.918"/>
					
						<polygon style="fill:#FFFFFF;stroke:#000000;stroke-width:2;stroke-linecap:round;stroke-linejoin:round;stroke-miterlimit:10;" points="
						616.348,151.894 651.823,195.812 580.872,195.812 					"/>
					
						<polygon style="fill:#FFFFFF;stroke:#000000;stroke-width:2;stroke-linecap:round;stroke-linejoin:round;stroke-miterlimit:10;" points="
						616.348,173.853 580.872,151.894 651.823,151.894 					"/>
				</g>
			</g>
			<g>
				<path style="fill:#00FFFD;stroke:#000000;stroke-width:2;stroke-miterlimit:10;" d="M379.147,350.228h-43.566
					c-6.577,0-11.908-5.332-11.908-11.908v-39.601h43.183c6.789,0,12.292,5.503,12.292,12.292V350.228z"/>
				<path style="fill:#FFFFFF;stroke:#000000;stroke-width:2;stroke-miterlimit:10;" d="M379.147,311.375h-55.475v-13.546h43.396
					c6.671,0,12.079,5.408,12.079,12.079V311.375z"/>
				<path style="fill:#FF93C8;stroke:#333333;stroke-width:2;stroke-miterlimit:10;" d="M362.733,330.704
					c0.765-1.08,1.219-2.396,1.219-3.82c0-3.658-2.965-6.622-6.622-6.622c-2.593,0-4.832,1.494-5.919,3.665
					c-1.087-2.171-3.326-3.665-5.919-3.665c-3.658,0-6.622,2.965-6.622,6.622c0,1.704,0.643,3.257,1.7,4.431
					c0.168,0.187,0.35,0.362,0.538,0.529l10.303,9.491l10.48-9.657C362.202,331.381,362.484,331.056,362.733,330.704
					L362.733,330.704L362.733,330.704z"/>
			</g>
			<polygon style="fill:#FDAE51;stroke:#000000;stroke-width:2;stroke-miterlimit:10;" points="282.166,343.831 287.024,360.322 
				300.647,349.836 294.885,366.033 312.07,365.557 297.887,375.274 312.07,384.99 294.885,384.515 300.647,400.712 
				287.024,390.226 282.166,406.717 277.307,390.226 263.684,400.712 269.447,384.515 252.262,384.99 266.444,375.274 
				252.262,365.557 269.447,366.033 263.684,349.836 277.307,360.322 			"/>
			<g>
				<g>
					<path style="fill:#FBEC54;stroke:#000000;stroke-width:2;stroke-miterlimit:10;" d="M654.294,277.83H501.637
						c-7.949,0-14.393-6.444-14.393-14.393v-47.865h152.193c8.205,0,14.857,6.652,14.857,14.857V277.83z"/>
					<path style="fill:#FFFFFF;stroke:#000000;stroke-width:2;stroke-miterlimit:10;" d="M654.294,230.87h-167.05v-16.373h152.451
						c8.063,0,14.599,6.536,14.599,14.599V230.87z"/>
				</g>
				<g>
					<circle cx="503.524" cy="222.271" r="2.365"/>
					<path d="M517.58,222.271c0,1.306-1.059,2.365-2.365,2.365c-1.306,0-2.365-1.059-2.365-2.365c0-1.306,1.059-2.365,2.365-2.365
						C516.522,219.907,517.58,220.965,517.58,222.271z"/>
					<circle cx="526.908" cy="222.271" r="2.365"/>
					<circle cx="538.599" cy="222.271" r="2.365"/>
				</g>
				<polygon style="fill:#FFFFFF;stroke:#000000;stroke-width:2;stroke-miterlimit:10;" points="520.584,252.832 504.485,260.881 
					504.485,244.782 				"/>
				
					<rect x="532.539" y="246.701" style="fill:#A05520;stroke:#000000;stroke-width:2;stroke-miterlimit:10;" width="72.959" height="12.978"/>
				
					<rect x="532.539" y="246.701" style="fill:#FDAE51;stroke:#000000;stroke-width:2;stroke-miterlimit:10;" width="48.334" height="12.978"/>
				
					<rect x="619.425" y="244.782" style="fill:#FFFFFF;stroke:#000000;stroke-width:2;stroke-miterlimit:10;" width="5.806" height="16.099"/>
				
					<rect x="630.823" y="244.782" style="fill:#FFFFFF;stroke:#000000;stroke-width:2;stroke-miterlimit:10;" width="5.805" height="16.099"/>
			</g>
			<g>
				<g>
					<path style="fill:#FF6EC9;stroke:#000000;stroke-width:2;stroke-miterlimit:10;" d="M538.147,347.228H424.581
						c-6.577,0-11.908-5.332-11.908-11.908v-29.601h113.183c6.789,0,12.292,5.503,12.292,12.292V347.228z"/>
					<path style="fill:#FFFFFF;stroke:#000000;stroke-width:2;stroke-miterlimit:10;" d="M538.147,318.375H412.673v-13.546h113.395
						c6.671,0,12.079,5.408,12.079,12.079V318.375z"/>
				</g>
				<g>
					<path style="fill:none;stroke:#000000;stroke-width:2;stroke-miterlimit:10;" d="M434.41,331.041
						c0,2.429-1.969,4.398-4.397,4.398c-2.429,0-4.397-1.969-4.397-4.398c0-2.429,1.969-4.397,4.397-4.397
						C432.442,326.643,434.41,328.612,434.41,331.041z"/>
					
						<line style="fill:none;stroke:#000000;stroke-width:2;stroke-miterlimit:10;" x1="436.855" y1="337.496" x2="432.861" y2="334.388"/>
				</g>
				<path style="fill:#FFFFFF;" d="M522.651,336.467h-71.417c-2.351,0-4.257-1.906-4.257-4.257l0,0c0-2.351,1.906-4.257,4.257-4.257
					h71.417c2.351,0,4.257,1.906,4.257,4.257l0,0C526.908,334.561,525.002,336.467,522.651,336.467z"/>
			</g>
			<g>
				<path style="fill:none;stroke:#000000;stroke-miterlimit:10;" d="M328.57,23.103c5.647,0,5.647,6,11.294,6
					c5.647,0,5.647-6,11.294-6c5.647,0,5.647,6,11.293,6c5.647,0,5.647-6,11.294-6c5.648,0,5.648,6,11.295,6
					c5.647,0,5.647-6,11.294-6c5.647,0,5.647,6,11.294,6c5.646,0,5.646-6,11.291-6c5.645,0,5.645,6,11.29,6
					c5.647,0,5.647-6,11.294-6c5.646,0,5.646,6,11.291,6c5.647,0,5.647-6,11.294-6c5.648,0,5.648,6,11.296,6
					c5.647,0,5.647-6,11.294-6s5.647,6,11.294,6c5.648,0,5.648-6,11.296-6c5.649,0,5.649,6,11.297,6c5.648,0,5.648-6,11.296-6
					c5.648,0,5.648,6,11.297,6c5.648,0,5.648-6,11.297-6c5.647,0,5.647,6,11.293,6c5.648,0,5.648-6,11.296-6c5.65,0,5.65,6,11.3,6
					c5.648,0,5.648-6,11.297-6c5.652,0,5.652,6,11.304,6c5.652,0,5.652-6,11.304-6"/>
				<path style="fill:none;stroke:#000000;stroke-miterlimit:10;" d="M328.57,36.661c5.647,0,5.647,6,11.294,6
					c5.647,0,5.647-6,11.294-6c5.647,0,5.647,6,11.293,6c5.647,0,5.647-6,11.294-6c5.648,0,5.648,6,11.295,6
					c5.647,0,5.647-6,11.294-6c5.647,0,5.647,6,11.294,6c5.646,0,5.646-6,11.291-6c5.645,0,5.645,6,11.29,6
					c5.647,0,5.647-6,11.294-6c5.646,0,5.646,6,11.291,6c5.647,0,5.647-6,11.294-6c5.648,0,5.648,6,11.296,6
					c5.647,0,5.647-6,11.294-6s5.647,6,11.294,6c5.648,0,5.648-6,11.296-6c5.649,0,5.649,6,11.297,6c5.648,0,5.648-6,11.296-6
					c5.648,0,5.648,6,11.297,6c5.648,0,5.648-6,11.297-6c5.647,0,5.647,6,11.293,6c5.648,0,5.648-6,11.296-6c5.65,0,5.65,6,11.3,6
					c5.648,0,5.648-6,11.297-6c5.652,0,5.652,6,11.304,6c5.652,0,5.652-6,11.304-6"/>
				<path style="fill:none;stroke:#000000;stroke-miterlimit:10;" d="M328.57,50.219c5.647,0,5.647,6,11.294,6
					c5.647,0,5.647-6,11.294-6c5.647,0,5.647,6,11.293,6c5.647,0,5.647-6,11.294-6c5.648,0,5.648,6,11.295,6
					c5.647,0,5.647-6,11.294-6c5.647,0,5.647,6,11.294,6c5.646,0,5.646-6,11.291-6c5.645,0,5.645,6,11.29,6
					c5.647,0,5.647-6,11.294-6c5.646,0,5.646,6,11.291,6c5.647,0,5.647-6,11.294-6c5.648,0,5.648,6,11.296,6
					c5.647,0,5.647-6,11.294-6s5.647,6,11.294,6c5.648,0,5.648-6,11.296-6c5.649,0,5.649,6,11.297,6c5.648,0,5.648-6,11.296-6
					c5.648,0,5.648,6,11.297,6c5.648,0,5.648-6,11.297-6c5.647,0,5.647,6,11.293,6c5.648,0,5.648-6,11.296-6c5.65,0,5.65,6,11.3,6
					c5.648,0,5.648-6,11.297-6c5.652,0,5.652,6,11.304,6c5.652,0,5.652-6,11.304-6"/>
			</g>
			<g>
				<g>
					<path style="fill:none;stroke:#000000;stroke-miterlimit:10;" d="M517.709,427.297c0,5.647-6,5.647-6,11.294
						c0,5.647,6,5.647,6,11.294c0,5.647-6,5.647-6,11.293c0,5.647,6,5.647,6,11.294c0,5.648-6,5.648-6,11.295
						c0,5.647,6,5.647,6,11.294c0,5.647-6,5.647-6,11.294c0,5.646,6,5.646,6,11.291c0,5.645-6,5.645-6,11.29
						c0,5.647,6,5.647,6,11.294c0,5.646-6,5.646-6,11.291c0,5.647,6,5.647,6,11.294c0,5.648-6,5.648-6,11.296
						c0,5.647,6,5.647,6,11.294c0,5.647-6,5.647-6,11.294c0,5.648,6,5.648,6,11.296c0,5.649-6,5.649-6,11.297
						c0,5.648,6,5.648,6,11.296c0,5.648-6,5.648-6,11.297s6,5.648,6,11.297c0,5.647-6,5.647-6,11.293c0,5.648,6,5.648,6,11.296
						c0,5.65-6,5.65-6,11.3c0,5.648,6,5.648,6,11.297c0,5.652-6,5.652-6,11.304c0,5.652,6,5.652,6,11.304"/>
					<path style="fill:none;stroke:#000000;stroke-miterlimit:10;" d="M504.151,427.297c0,5.647-6,5.647-6,11.294
						c0,5.647,6,5.647,6,11.294c0,5.647-6,5.647-6,11.293c0,5.647,6,5.647,6,11.294c0,5.648-6,5.648-6,11.295
						c0,5.647,6,5.647,6,11.294c0,5.647-6,5.647-6,11.294c0,5.646,6,5.646,6,11.291c0,5.645-6,5.645-6,11.29
						c0,5.647,6,5.647,6,11.294c0,5.646-6,5.646-6,11.291c0,5.647,6,5.647,6,11.294c0,5.648-6,5.648-6,11.296
						c0,5.647,6,5.647,6,11.294c0,5.647-6,5.647-6,11.294c0,5.648,6,5.648,6,11.296c0,5.649-6,5.649-6,11.297
						c0,5.648,6,5.648,6,11.296c0,5.648-6,5.648-6,11.297s6,5.648,6,11.297c0,5.647-6,5.647-6,11.293c0,5.648,6,5.648,6,11.296
						c0,5.65-6,5.65-6,11.3c0,5.648,6,5.648,6,11.297c0,5.652-6,5.652-6,11.304c0,5.652,6,5.652,6,11.304"/>
					<path style="fill:none;stroke:#000000;stroke-miterlimit:10;" d="M490.594,427.297c0,5.647-6,5.647-6,11.294
						c0,5.647,6,5.647,6,11.294c0,5.647-6,5.647-6,11.293c0,5.647,6,5.647,6,11.294c0,5.648-6,5.648-6,11.295
						c0,5.647,6,5.647,6,11.294c0,5.647-6,5.647-6,11.294c0,5.646,6,5.646,6,11.291c0,5.645-6,5.645-6,11.29
						c0,5.647,6,5.647,6,11.294c0,5.646-6,5.646-6,11.291c0,5.647,6,5.647,6,11.294c0,5.648-6,5.648-6,11.296
						c0,5.647,6,5.647,6,11.294c0,5.647-6,5.647-6,11.294c0,5.648,6,5.648,6,11.296c0,5.649-6,5.649-6,11.297
						c0,5.648,6,5.648,6,11.296c0,5.648-6,5.648-6,11.297s6,5.648,6,11.297c0,5.647-6,5.647-6,11.293c0,5.648,6,5.648,6,11.296
						c0,5.65-6,5.65-6,11.3c0,5.648,6,5.648,6,11.297c0,5.652-6,5.652-6,11.304c0,5.652,6,5.652,6,11.304"/>
				</g>
				<g>
					<path style="fill:none;stroke:#000000;stroke-miterlimit:10;" d="M558.673,427.297c0,5.647-6,5.647-6,11.294
						c0,5.647,6,5.647,6,11.294c0,5.647-6,5.647-6,11.293c0,5.647,6,5.647,6,11.294c0,5.648-6,5.648-6,11.295
						c0,5.647,6,5.647,6,11.294c0,5.647-6,5.647-6,11.294c0,5.646,6,5.646,6,11.291c0,5.645-6,5.645-6,11.29
						c0,5.647,6,5.647,6,11.294c0,5.646-6,5.646-6,11.291c0,5.647,6,5.647,6,11.294c0,5.648-6,5.648-6,11.296
						c0,5.647,6,5.647,6,11.294c0,5.647-6,5.647-6,11.294c0,5.648,6,5.648,6,11.296c0,5.649-6,5.649-6,11.297
						c0,5.648,6,5.648,6,11.296c0,5.648-6,5.648-6,11.297s6,5.648,6,11.297c0,5.647-6,5.647-6,11.293c0,5.648,6,5.648,6,11.296
						c0,5.65-6,5.65-6,11.3c0,5.648,6,5.648,6,11.297c0,5.652-6,5.652-6,11.304c0,5.652,6,5.652,6,11.304"/>
					<path style="fill:none;stroke:#000000;stroke-miterlimit:10;" d="M545.115,427.297c0,5.647-6,5.647-6,11.294
						c0,5.647,6,5.647,6,11.294c0,5.647-6,5.647-6,11.293c0,5.647,6,5.647,6,11.294c0,5.648-6,5.648-6,11.295
						c0,5.647,6,5.647,6,11.294c0,5.647-6,5.647-6,11.294c0,5.646,6,5.646,6,11.291c0,5.645-6,5.645-6,11.29
						c0,5.647,6,5.647,6,11.294c0,5.646-6,5.646-6,11.291c0,5.647,6,5.647,6,11.294c0,5.648-6,5.648-6,11.296
						c0,5.647,6,5.647,6,11.294c0,5.647-6,5.647-6,11.294c0,5.648,6,5.648,6,11.296c0,5.649-6,5.649-6,11.297
						c0,5.648,6,5.648,6,11.296c0,5.648-6,5.648-6,11.297s6,5.648,6,11.297c0,5.647-6,5.647-6,11.293c0,5.648,6,5.648,6,11.296
						c0,5.65-6,5.65-6,11.3c0,5.648,6,5.648,6,11.297c0,5.652-6,5.652-6,11.304c0,5.652,6,5.652,6,11.304"/>
					<path style="fill:none;stroke:#000000;stroke-miterlimit:10;" d="M531.557,427.297c0,5.647-6,5.647-6,11.294
						c0,5.647,6,5.647,6,11.294c0,5.647-6,5.647-6,11.293c0,5.647,6,5.647,6,11.294c0,5.648-6,5.648-6,11.295
						c0,5.647,6,5.647,6,11.294c0,5.647-6,5.647-6,11.294c0,5.646,6,5.646,6,11.291c0,5.645-6,5.645-6,11.29
						c0,5.647,6,5.647,6,11.294c0,5.646-6,5.646-6,11.291c0,5.647,6,5.647,6,11.294c0,5.648-6,5.648-6,11.296
						c0,5.647,6,5.647,6,11.294c0,5.647-6,5.647-6,11.294c0,5.648,6,5.648,6,11.296c0,5.649-6,5.649-6,11.297
						c0,5.648,6,5.648,6,11.296c0,5.648-6,5.648-6,11.297s6,5.648,6,11.297c0,5.647-6,5.647-6,11.293c0,5.648,6,5.648,6,11.296
						c0,5.65-6,5.65-6,11.3c0,5.648,6,5.648,6,11.297c0,5.652-6,5.652-6,11.304c0,5.652,6,5.652,6,11.304"/>
				</g>
			</g>
		</g>
	</g>
</g>
</svg>
